# xmcd
#
# Track frame offsets:
# 183
# 17568
# 28453
# 51733
# 60018
# 73968
# 86885
# 101073
# 113283
# 135188
# 151158
# 166458
# 180528
# 186588
#
# Disc length: 2661 seconds
#
#
# Revision: 3
# Processed by: cddbd v1.5.2PL0 Copyright (c) Steve Scherf et al.
# Submitted via: FreeRIP 2.70 
#
DISCID=bc0a630e
DTITLE=Simon and Garfunkel - Mrs. Robinson - Simon and Garfunkel - Mrs. Robinson
DYEAR=1900
DGENRE=Blues
TTITLE0=Mrs. Robinson
TTITLE1=For Emily, Whenever I May Find Her
TTITLE2=The Boxer
TTITLE3=The 59th Street Bridge Song
TTITLE4=The Sound of Silence
TTITLE5=I am a Rock
TTITLE6=Scarborough Fair Canticle
TTITLE7=Homeward Bound
TTITLE8=Bridge Over Troubled Water
TTITLE9=America
TTITLE10=Kathy's Song
TTITLE11=El Condor Pasa
TTITLE12=Bookends
TTITLE13=Cecilia
EXTD=
EXTT0=
EXTT1=
EXTT2=
EXTT3=
EXTT4=
EXTT5=
EXTT6=
EXTT7=
EXTT8=
EXTT9=
EXTT10=
EXTT11=
EXTT12=
EXTT13=
PLAYORDER=
